# Made using Asset Forge (www.assetforge.io) version 1.3 

mtllib Castle_Wall.mtl 

v -0.5625 0 0.5
v -0.5625 1 0.5
v -0.5 -2.707168E-16 0.5625
v -0.5 1 0.5625
v -0.5 -6.316725E-16 -0.5625
v -0.5 1 -0.5625
v -0.5625 0 -0.5
v -0.5625 1 -0.5
v -0.4375 1 0.5
v -0.4375 0 0.5
v -0.4375 1 -0.5
v -0.4375 0 -0.5
vn -0.7071068 0 0.7071068
vn -0.7071068 0 -0.7071068
vn 0.7071068 0 0.7071068
vn 0 1 0
vn 0 -1 0
vn 0.7071068 0 -0.7071068
vn 1 0 0
vn -1 0 0
vt -0.5625 0
vt -0.5625 1
vt -0.5 -2.707168E-16
vt -0.5 1
vt 0.5 -6.316725E-16
vt 0.5 1
vt 0.5625 0
vt 0.5625 1
vt -0.4375 1
vt -0.4375 0
vt 0.4375 -0.5
vt 0.4375 0.5
vt 0.5 -0.5625
vt 0.5 0.5625
vt 0.5625 -0.5
vt 0.5625 0.5
vt 0.4375 1
vt 0.4375 0
vt 0.5 0
vt -0.5 0

usemtl wood (Instance) (Instance)
usemap wood (Instance) (Instance)
f 3/3/1 2/2/1 1/1/1
f 2/2/1 3/3/1 4/4/1
f 7/7/2 6/6/2 5/5/2
f 6/6/2 7/7/2 8/8/2
f 4/4/3 10/10/3 9/9/3
f 10/10/3 4/4/3 3/3/3
f 6/13/4 9/12/4 11/11/4
f 9/12/4 6/13/4 4/14/4
f 4/14/4 6/13/4 8/15/4
f 4/14/4 8/15/4 2/16/4
f 3/13/5 12/12/5 10/11/5
f 12/12/5 3/13/5 5/14/5
f 5/14/5 3/13/5 1/15/5
f 5/14/5 1/15/5 7/16/5
f 11/17/6 5/5/6 6/6/6
f 5/5/6 11/17/6 12/18/6
f 9/4/7 12/19/7 11/6/7
f 12/19/7 9/4/7 10/20/7
f 1/19/8 8/4/8 7/20/8
f 8/4/8 1/19/8 2/6/8
v -0.5625 1.5 0.5
v -0.5 1.5 0.5625
v -0.5 1.5 -0.5625
v -0.5625 1.5 -0.5
v -0.4375 1.5 0.5
v -0.4375 1.5 -0.5
vn 0 0.5 0
vn 0 -0.5 0
vt -0.5625 1.5
vt -0.5 1.5
vt 0.5 1.5
vt 0.5625 1.5
vt -0.4375 1.5
vt 0.4375 1.5

usemtl wood (Instance) (Instance)
usemap wood (Instance) (Instance)
f 4/4/1 13/21/1 2/2/1
f 13/21/1 4/4/1 14/22/1
f 8/8/2 15/23/2 6/6/2
f 15/23/2 8/8/2 16/24/2
f 14/22/3 9/9/3 17/25/3
f 9/9/3 14/22/3 4/4/3
f 15/13/9 17/12/9 18/11/9
f 17/12/9 15/13/9 14/14/9
f 14/14/9 15/13/9 16/15/9
f 14/14/9 16/15/9 13/16/9
f 4/13/10 11/12/10 9/11/10
f 11/12/10 4/13/10 6/14/10
f 6/14/10 4/13/10 2/15/10
f 6/14/10 2/15/10 8/16/10
f 18/26/6 6/6/6 15/23/6
f 6/6/6 18/26/6 11/17/6
f 17/22/7 11/6/7 18/23/7
f 11/6/7 17/22/7 9/4/7
f 2/6/8 16/22/8 8/4/8
f 16/22/8 2/6/8 13/23/8
